<svg width="20" height="6" viewBox="0 0 20 6" fill="none" xmlns="http://www.w3.org/2000/svg">
<path d="M20 2.61207C20 4.05459 18.8311 5.22415 17.3879 5.22415C16.6552 5.22415 15.9931 4.9218 15.5183 4.4353C15.5262 4.44314 15.5334 4.45163 15.5412 4.45946C14.5218 3.4401 12.869 3.43945 11.849 4.4575C11.3762 4.9316 10.7226 5.22415 10.0003 5.22415C9.27809 5.22415 8.60483 4.9218 8.13008 4.4353C8.13792 4.44314 8.1451 4.45163 8.15294 4.45946C7.13358 3.4401 5.48144 3.43945 4.46077 4.4575C3.98799 4.9316 3.33431 5.22415 2.61207 5.22415C1.16956 5.22415 0 4.05459 0 2.61207C0 1.16956 1.16956 0 2.61207 0C3.33431 0 3.98799 0.293205 4.46077 0.767297C5.48144 1.78601 7.13358 1.7847 8.15294 0.765338C8.14575 0.772521 8.13922 0.780358 8.13139 0.788194C8.60613 0.302348 9.26764 0 10.0003 0C10.733 0 11.3762 0.293205 11.849 0.767297C12.8697 1.78601 14.5218 1.7847 15.5412 0.765338C15.534 0.772521 15.5268 0.780358 15.5196 0.788194C15.9944 0.302348 16.6559 0 17.3879 0C18.8311 0 20 1.16956 20 2.61207Z" fill="#EFF3F9"/>
</svg>
