<svg width="20" height="20" viewBox="0 0 20 20" fill="none" xmlns="http://www.w3.org/2000/svg">
<path d="M20 10C20 11.4425 18.8311 12.612 17.388 12.612C16.6664 12.612 16.0135 12.3194 15.5407 11.8467C14.5214 10.8273 12.8693 10.8273 11.8486 11.8454L11.8454 11.8486C10.8267 12.8693 10.8273 14.5214 11.8473 15.5407C11.8388 15.5328 11.831 15.5257 11.8225 15.5178C12.3097 15.9919 12.612 16.6547 12.612 17.388C12.612 18.8311 11.4425 20 10 20C8.55753 20 7.38801 18.8311 7.38801 17.388C7.38801 16.6553 7.69035 15.9932 8.17618 15.5191C8.16834 15.5263 8.16051 15.5335 8.15332 15.5407C9.16939 14.5246 9.17331 12.8784 8.16442 11.8578L8.14222 11.8356C7.12224 10.8273 5.47734 10.8313 4.46128 11.8454C3.98851 12.3188 3.33486 12.612 2.61199 12.612C1.16952 12.612 0 11.4425 0 10C0 8.55753 1.16952 7.38801 2.61199 7.38801C3.33486 7.38801 3.98851 7.68121 4.46128 8.15463C5.48191 9.17331 7.134 9.17265 8.15332 8.15332C8.14549 8.16116 8.13831 8.169 8.13047 8.17683C8.14549 8.16116 8.16116 8.14549 8.17683 8.13047C8.169 8.13765 8.16116 8.14549 8.15332 8.15332C9.17265 7.13334 9.17331 5.48126 8.15463 4.46128C7.68121 3.98851 7.38801 3.33486 7.38801 2.61199C7.38801 1.16952 8.55753 0 10 0C11.4425 0 12.612 1.16952 12.612 2.61199C12.612 3.33486 12.3188 3.98851 11.8454 4.46128C10.8273 5.48126 10.828 7.13204 11.8454 8.15137C11.8467 8.15267 11.848 8.15332 11.8486 8.15463C12.8693 9.17331 14.5214 9.17265 15.5407 8.15332C15.5328 8.16116 15.5257 8.169 15.5178 8.17683C15.9926 7.69035 16.6547 7.38801 17.388 7.38801C18.8311 7.38801 20 8.55753 20 10Z" fill="#EFF3F9"/>
</svg>
