<svg width="23" height="16" viewBox="0 0 23 16" fill="none" xmlns="http://www.w3.org/2000/svg">
<path d="M8.13169 6.114C7.11437 7.15533 5.4653 7.156 4.44734 6.114C3.42937 5.072 1.7803 5.07267 0.762987 6.114C-0.254329 7.15533 -0.254329 8.844 0.762987 9.88534C1.78095 10.9273 3.43002 10.9267 4.44734 9.88534C5.46465 8.844 7.11437 8.844 8.13169 9.88534C9.149 10.9267 10.7987 10.9267 11.816 9.88534C12.8334 8.844 12.834 7.156 11.816 6.114C10.7987 5.07267 9.149 5.07267 8.13169 6.114Z" fill="#EFF3F9"/>
<path d="M20.3948 5.33333C18.9561 5.33333 17.7897 4.14 17.7897 2.66667C17.7897 1.19333 16.6232 0 15.1845 0C13.7458 0 12.5794 1.194 12.5794 2.66667C12.5794 4.13933 13.7458 5.33333 15.1845 5.33333C16.6232 5.33333 17.7897 6.52733 17.7897 8C17.7897 9.47267 16.6232 10.6667 15.1845 10.6667C13.7458 10.6667 12.5794 11.8607 12.5794 13.3333C12.5794 14.806 13.7458 16 15.1845 16C16.6232 16 17.7897 14.8067 17.7897 13.3333C17.7897 11.86 18.9561 10.6667 20.3948 10.6667C21.8335 10.6667 23 9.47333 23 8C23 6.52667 21.8335 5.33333 20.3948 5.33333Z" fill="#EFF3F9"/>
</svg>
