<svg width="240" height="240" viewBox="0 0 240 240" fill="none" xmlns="http://www.w3.org/2000/svg">
<path d="M200 80C177.91 80 160 62.1 160 40C160 17.9 142.09 0 120 0C97.91 0 80 17.91 80 40C80 62.09 62.09 80 40 80C17.91 80 0 97.91 0 120C0 142.09 17.91 160 40 160C62.09 160 80 177.91 80 200C80 222.09 97.91 240 120 240C142.09 240 160 222.1 160 200C160 177.9 177.91 160 200 160C222.09 160 240 142.1 240 120C240 97.9 222.09 80 200 80ZM120 160C97.91 160 80 142.1 80 120C80 97.9 97.91 80 120 80C142.09 80 160 97.91 160 120C160 142.09 142.09 160 120 160Z" fill="white"/>
</svg>
