<svg width="222" height="222" viewBox="0 0 222 222" fill="none" xmlns="http://www.w3.org/2000/svg">
<path d="M142.657 14.1248C124.911 31.8707 95.9309 31.6661 77.9144 13.6497C59.8979 -4.3668 30.9175 -4.57138 13.1715 13.1746C-4.5744 30.9205 -4.36168 59.9091 13.6466 77.9174C31.6549 95.9258 60.6436 96.1385 78.3895 78.3925C96.1355 60.6466 125.124 60.8593 143.132 78.8676C161.141 96.8759 161.353 125.865 143.607 143.611C125.862 161.356 126.074 190.345 144.083 208.353C162.091 226.362 191.079 226.574 208.825 208.828C226.571 191.083 226.367 162.102 208.35 144.086C190.334 126.069 190.129 97.0887 207.875 79.3427C225.621 61.5968 225.417 32.6163 207.4 14.5998C189.384 -3.41664 160.403 -3.62119 142.657 14.1248Z" fill="white"/>
</svg>
