<svg width="221" height="222" viewBox="0 0 221 222" fill="none" xmlns="http://www.w3.org/2000/svg">
<path d="M78.1345 208.534C96.0089 190.578 96.0089 161.467 78.1345 143.512C60.2602 125.557 31.2801 125.557 13.4058 143.512C-4.46859 161.467 -4.46859 190.578 13.4058 208.534C31.2801 226.489 60.2602 226.489 78.1345 208.534Z" fill="white"/>
<path d="M142.863 13.4686C124.99 31.4227 96.0158 31.4309 78.1345 13.4686C60.2532 -4.49361 31.279 -4.48548 13.4058 13.4686C-4.46746 31.4227 -4.46746 60.5362 13.4058 78.4903C31.279 96.4444 60.2613 96.4444 78.1345 78.4903C96.0078 60.5362 124.99 60.5362 142.863 78.4903C160.737 96.4444 160.737 125.558 142.863 143.512C124.99 161.466 124.99 190.579 142.863 208.534C160.737 226.488 189.719 226.488 207.592 208.534C225.465 190.579 225.473 161.474 207.592 143.512C189.711 125.55 189.719 96.4444 207.592 78.4903C225.465 60.5362 225.473 31.4309 207.592 13.4686C189.711 -4.49361 160.737 -4.48548 142.863 13.4686Z" fill="white"/>
</svg>
