<svg width="307" height="307" viewBox="0 0 307 307" fill="none" xmlns="http://www.w3.org/2000/svg">
<path d="M306.28 153.14C306.28 175.23 288.38 193.14 266.28 193.14C255.23 193.14 245.23 188.66 237.99 181.42C222.38 165.81 197.08 165.81 181.45 181.4L181.4 181.45C165.8 197.08 165.81 222.38 181.43 237.99C181.3 237.87 181.18 237.76 181.05 237.64C188.51 244.9 193.14 255.05 193.14 266.28C193.14 288.38 175.23 306.28 153.14 306.28C131.05 306.28 113.14 288.38 113.14 266.28C113.14 255.06 117.77 244.92 125.21 237.66C125.09 237.77 124.97 237.88 124.86 237.99C140.42 222.43 140.48 197.22 125.03 181.59L124.69 181.25C109.07 165.81 83.88 165.87 68.32 181.4C61.08 188.65 51.07 193.14 40 193.14C17.91 193.14 0 175.23 0 153.14C0 131.05 17.91 113.14 40 113.14C51.07 113.14 61.08 117.63 68.32 124.88C83.95 140.48 109.25 140.47 124.86 124.86C124.74 124.98 124.63 125.1 124.51 125.22C124.74 124.98 124.98 124.74 125.22 124.51C125.1 124.62 124.98 124.74 124.86 124.86C140.47 109.24 140.48 83.94 124.88 68.32C117.63 61.08 113.14 51.07 113.14 40C113.14 17.91 131.05 0 153.14 0C175.23 0 193.14 17.91 193.14 40C193.14 51.07 188.65 61.08 181.4 68.32C165.81 83.94 165.82 109.22 181.4 124.83C181.42 124.85 181.44 124.86 181.45 124.88C197.08 140.48 222.38 140.47 237.99 124.86C237.87 124.98 237.76 125.1 237.64 125.22C244.91 117.77 255.05 113.14 266.28 113.14C288.38 113.14 306.28 131.05 306.28 153.14Z" fill="white"/>
</svg>
